<?xml version="1.0" standalone="no"?>
<!DOCTYPE svg PUBLIC "-//W3C//DTD SVG 20010904//EN"
 "http://www.w3.org/TR/2001/REC-SVG-20010904/DTD/svg10.dtd">
<svg version="1.0" xmlns="http://www.w3.org/2000/svg"
 width="256.000000pt" height="256.000000pt" viewBox="0 0 256.000000 256.000000"
 preserveAspectRatio="xMidYMid meet">
<metadata>
Created by potrace 1.14, written by Peter Selinger 2001-2017
</metadata>
<g transform="translate(0.000000,256.000000) scale(0.100000,-0.100000)"
fill="#000000" stroke="none">
<path d="M1410 2543 c-11 -8 -32 -38 -46 -66 -15 -29 -32 -55 -38 -59 -6 -4
-8 -8 -4 -8 4 0 -26 -66 -67 -147 -81 -164 -127 -263 -157 -338 -11 -27 -23
-54 -28 -60 -4 -5 -11 -21 -15 -35 -4 -14 -19 -50 -33 -80 -14 -30 -27 -59
-28 -65 -1 -5 -35 -89 -74 -185 -40 -96 -81 -202 -92 -235 -19 -57 -53 -144
-84 -210 -26 -56 -142 -340 -157 -385 -14 -43 -29 -119 -29 -150 0 -8 -11 -49
-25 -90 -26 -76 -32 -142 -13 -148 6 -2 8 -7 6 -11 -4 -6 16 -10 74 -14 26 -2
27 -4 29 -63 1 -25 10 -44 29 -64 26 -25 33 -27 91 -24 49 2 73 9 103 30 21
15 37 29 34 31 -2 2 11 20 30 40 18 19 36 44 39 54 4 10 11 19 16 19 6 0 8 4
5 8 -3 5 3 18 12 28 10 10 19 22 20 27 2 7 3 12 6 25 1 4 10 25 20 47 9 22 20
52 23 68 3 15 9 27 13 27 5 0 7 8 6 17 -2 10 7 43 20 75 12 32 23 61 23 63 -1
20 14 65 21 65 5 0 7 6 4 13 -2 7 2 21 9 31 12 16 29 19 118 20 57 1 109 3
114 6 6 3 57 5 115 5 l105 0 1 -25 c1 -14 4 -54 8 -90 4 -36 9 -87 12 -115 18
-204 23 -246 35 -285 6 -19 18 -42 25 -51 8 -9 11 -19 7 -24 -5 -4 -3 -5 4 -1
6 3 14 2 18 -4 10 -15 61 -12 75 5 12 14 16 12 41 -13 28 -29 52 -34 79 -17 9
6 15 4 18 -5 3 -8 15 -24 28 -37 20 -20 27 -21 48 -11 48 21 50 51 41 463 -4
181 -11 291 -20 306 -4 5 -8 60 -11 122 -2 61 -7 130 -10 152 -3 22 -7 65 -10
95 -3 52 -6 77 -19 180 -3 25 -7 63 -9 85 -2 22 -7 63 -11 90 -4 28 -9 70 -10
95 -1 25 -5 56 -9 70 -3 14 -8 45 -10 70 -8 79 -17 144 -27 190 -5 25 -12 72
-15 105 -14 164 -18 188 -44 254 -10 27 -16 52 -13 55 4 3 -1 6 -10 6 -8 0
-18 8 -21 18 -3 9 -22 28 -42 41 -34 23 -45 25 -180 26 -110 1 -149 -2 -164
-12z m102 -800 c0 -5 2 -19 4 -33 4 -39 12 -85 15 -85 1 0 3 -25 5 -55 1 -30
3 -55 4 -55 3 0 8 -48 14 -126 3 -42 6 -81 7 -85 1 -5 1 -20 0 -34 -1 -29 -5
-30 -171 -34 -102 -3 -114 -1 -103 17 4 7 8 14 9 17 0 3 6 18 12 33 7 16 12
33 12 38 0 5 5 9 11 9 5 0 7 5 4 10 -3 6 -1 10 4 10 6 0 10 3 9 8 -1 4 4 20
10 35 7 16 12 33 12 38 0 5 4 9 8 9 4 0 8 9 9 19 1 11 18 54 37 97 20 42 36
83 36 90 0 8 5 14 12 14 6 0 9 3 5 6 -8 8 13 64 24 64 5 0 10 -3 11 -7z"/>
</g>
</svg>
